<svg width="12" height="12" viewBox="0 0 12 12" fill="none" xmlns="http://www.w3.org/2000/svg">
<path fill-rule="evenodd" clip-rule="evenodd" d="M3.66667 1.33332H8.33333V0.166656H9.5V1.33332H10.0833C10.3928 1.33332 10.6895 1.45624 10.9083 1.67503C11.1271 1.89382 11.25 2.19057 11.25 2.49999V10.6667C11.25 10.9761 11.1271 11.2728 10.9083 11.4916C10.6895 11.7104 10.3928 11.8333 10.0833 11.8333H1.91667C1.60725 11.8333 1.3105 11.7104 1.09171 11.4916C0.872916 11.2728 0.75 10.9761 0.75 10.6667V2.49999C0.75 2.19057 0.872916 1.89382 1.09171 1.67503C1.3105 1.45624 1.60725 1.33332 1.91667 1.33332H2.5V0.166656H3.66667V1.33332ZM1.91667 3.66666V10.6667H10.0833V3.66666H1.91667ZM3.08333 5.41666H4.25V6.58332H3.08333V5.41666ZM5.41667 5.41666H6.58333V6.58332H5.41667V5.41666ZM7.75 5.41666H8.91667V6.58332H7.75V5.41666ZM7.75 7.74999H8.91667V8.91666H7.75V7.74999ZM5.41667 7.74999H6.58333V8.91666H5.41667V7.74999ZM3.08333 7.74999H4.25V8.91666H3.08333V7.74999Z" fill="#6C6C6C"/>
</svg>
